<?xml version="1.0" encoding="iso-8859-1"?>
<!-- Generator: Adobe Illustrator 18.0.0, SVG Export Plug-In . SVG Version: 6.00 Build 0)  -->
<!DOCTYPE svg PUBLIC "-//W3C//DTD SVG 1.1//EN" "http://www.w3.org/Graphics/SVG/1.1/DTD/svg11.dtd">
<svg version="1.1" id="Capa_1" xmlns="http://www.w3.org/2000/svg" xmlns:xlink="http://www.w3.org/1999/xlink" x="0px" y="0px"
	 viewBox="0 0 419 419" style="enable-background:new 0 0 419 419;" xml:space="preserve">
<g>
	<path d="M226.75,134.278c10.57-1.962,17.861-10.616,16.252-19.29c-1.375-7.405-8.669-12.577-17.736-12.577
		c-1.445,0-2.911,0.136-4.355,0.404c-9.706,1.801-20.027,15.675-21.172,17.251c-0.645,0.888-0.896,2.002-0.696,3.081
		s0.835,2.028,1.756,2.625c1.38,0.896,13.754,8.746,23.203,8.746C224.964,134.519,225.889,134.438,226.75,134.278z M235.137,116.448
		c0.791,4.264-3.719,8.827-9.847,9.965c-0.068,0.013-0.146,0.018-0.216,0.028c-3.024-4.564-4.344-8.644-3.804-11.874
		c0.348-2.081,1.395-3.382,2.042-4.017c0.654-0.082,1.307-0.138,1.954-0.138C230.336,110.412,234.488,112.951,235.137,116.448z
		 M213.17,116.797c0.094,2.349,0.643,4.796,1.645,7.332c-2.099-0.884-4.132-1.897-5.853-2.831
		C210.233,119.806,211.673,118.249,213.17,116.797z"/>
	<path d="M417.828,104.091c-9.749-9.75-32.207-11.351-58.21-13.204c-14.161-1.009-28.78-2.051-41.618-4.525
		c-0.589-0.114-11.655-2.72-15.607-4.192c-10.406-3.865-19.896-9.509-29.944-15.484c-22.387-13.313-47.76-28.404-87.909-23.74
		c-31.448,3.649-55.475,13.487-73.452,30.077c-15.497,14.301-27.214,34.195-36.875,62.608
		c-17.037,50.109-30.751,64.849-72.45,92.971c-1.831,1.235-2.314,3.722-1.08,5.553c0.773,1.146,2.035,1.764,3.32,1.764
		c0.77,0,1.547-0.222,2.233-0.684c42.785-28.855,57.892-45.09,75.551-97.029c15.995-47.044,39.747-79.896,103.674-87.314
		c37.461-4.349,60.56,9.386,82.898,22.669c10.368,6.166,20.162,11.99,31.244,16.106c4.271,1.59,15.271,4.294,15.61,4.402
		c5.971,1.89,8.703,3.36,9.913,4.203c-2.964,1.763-12.329,4.775-33.353,7.21c-6.66,0.772-12.93,3.447-18.132,7.735
		c-15.826,13.049-25.73,25.309-29.438,36.437c-0.486,1.459-0.093,3.068,1.013,4.138c0.76,0.735,1.762,1.126,2.783,1.126
		c0.465,0,0.934-0.081,1.386-0.248c0.421-0.156,19.998-7.345,48.18-16.023c-4.55,7.423-12.189,18.668-22.47,29.52
		c-14.681,15.496-42.006,44.339-43.096,96.667c-0.979,46.952-16.707,106.458-16.866,107.053c-0.568,2.134,0.7,4.326,2.835,4.895
		c0.345,0.092,0.691,0.136,1.033,0.136c1.768,0,3.385-1.181,3.862-2.97c0.161-0.605,16.136-61.02,17.134-108.947
		c0.946-45.433,21.61-70.966,40.904-91.333c15.524-16.386,25.117-33.275,27.864-38.409c31.652-9.395,71.275-19.646,106.761-24.377
		c1.509-0.201,2.772-1.241,3.261-2.682C419.277,106.76,418.905,105.166,417.828,104.091z M292.695,113.43
		c35.479-4.11,40.713-9.651,41.153-14.528c0.068-0.762,0.009-1.483-0.166-2.167c8.345,0.919,16.936,1.532,25.367,2.133
		c14.958,1.066,30.245,2.161,41.022,5.053c-10.285,0.777-25.118,2.044-41.752,3.923c-33.331,3.766-60.948,8.438-82.41,13.928
		c0.92-0.789,1.855-1.581,2.823-2.38C282.741,116.084,287.57,114.023,292.695,113.43z M263.652,133.584
		c21.678-6.931,50.302-11.948,76.838-15.471c-36.852,9.583-69.467,20.487-84.725,25.801
		C257.808,140.597,260.441,137.15,263.652,133.584z"/>
</g>
<g>
</g>
<g>
</g>
<g>
</g>
<g>
</g>
<g>
</g>
<g>
</g>
<g>
</g>
<g>
</g>
<g>
</g>
<g>
</g>
<g>
</g>
<g>
</g>
<g>
</g>
<g>
</g>
<g>
</g>
</svg>
